<svg width="250" height="360" viewBox="0 0 250 360" fill="none" xmlns="http://www.w3.org/2000/svg">
<path d="M91.6942 215.732C106.586 215.732 118.658 203.659 118.658 188.767C118.658 173.876 106.586 161.803 91.6942 161.803C76.8023 161.803 64.73 173.876 64.73 188.767C64.73 203.659 76.8023 215.732 91.6942 215.732Z" fill="#4285F4"/>
<path d="M26.1145 254.379C25.5433 254.105 25.0562 253.683 24.7044 253.156C24.3526 252.629 24.1491 252.017 24.1152 251.385L23.723 243.959C23.6746 243.025 23.9987 242.11 24.6241 241.415C25.2494 240.72 26.1251 240.301 27.0588 240.251L88.9496 236.982C89.8834 236.933 90.7982 237.257 91.4933 237.883C92.1885 238.508 92.6071 239.383 92.6575 240.317L93.0498 247.743C93.0981 248.677 92.774 249.592 92.1487 250.287C91.5233 250.982 90.6478 251.4 89.7141 251.451L27.8232 254.721C27.234 254.752 26.6463 254.635 26.1145 254.379Z" fill="#4285F4"/>
<path d="M68.7793 254.525C68.1771 254.233 67.6698 253.777 67.3163 253.21C66.9627 252.642 66.7774 251.986 66.7818 251.317L66.7085 237.336C66.7119 236.872 66.8065 236.414 66.9871 235.987C67.1677 235.56 67.4306 235.173 67.7609 234.848C68.0911 234.523 68.4822 234.266 68.9118 234.093C69.3414 233.919 69.801 233.831 70.2644 233.835L98.4991 236.324C99.2465 236.329 100.19 237.487 100.948 238.416C101.186 238.708 101.392 238.96 101.542 239.112C101.608 239.179 101.671 239.249 101.73 239.32C102.269 239.962 102.562 240.776 102.554 241.615L102.492 249.051C102.483 249.986 102.104 250.879 101.437 251.535C100.771 252.19 99.8712 252.555 98.9362 252.548L70.3012 254.872C69.7744 254.87 69.2546 254.752 68.7793 254.525Z" fill="#2F2E41"/>
<path d="M86.4379 359.99H79.0018C78.0668 359.989 77.1704 359.617 76.5092 358.955C75.848 358.294 75.4761 357.398 75.4751 356.463V293.478C75.4761 292.543 75.8481 291.647 76.5092 290.985C77.1704 290.324 78.0668 289.952 79.0018 289.951H86.4379C87.373 289.952 88.2694 290.324 88.9305 290.985C89.5917 291.647 89.9636 292.543 89.9647 293.478V356.463C89.9636 357.398 89.5917 358.294 88.9305 358.955C88.2694 359.617 87.373 359.989 86.4379 359.99Z" fill="#4285F4"/>
<path d="M106.053 359.99H98.6166C97.6815 359.989 96.7851 359.617 96.1239 358.955C95.4628 358.294 95.0909 357.398 95.0898 356.463V293.478C95.0909 292.543 95.4628 291.647 96.124 290.985C96.7851 290.324 97.6816 289.952 98.6166 289.951H106.053C106.988 289.952 107.884 290.324 108.545 290.985C109.206 291.647 109.578 292.543 109.579 293.478V356.463C109.578 357.398 109.206 358.294 108.545 358.955C107.884 359.617 106.988 359.989 106.053 359.99Z" fill="#4285F4"/>
<path d="M95.2836 198.761L95.3117 197.753C93.4371 197.701 91.7844 197.584 90.5426 196.676C90.1905 196.405 89.9011 196.06 89.6941 195.666C89.4871 195.273 89.3673 194.839 89.3428 194.395C89.321 194.124 89.3621 193.851 89.4628 193.598C89.5636 193.345 89.7212 193.119 89.9236 192.937C90.748 192.24 92.0745 192.466 93.0413 192.909L93.875 193.291L92.2762 181.608L91.278 181.744L92.6379 191.683C92.0812 191.476 91.4817 191.413 90.894 191.497C90.3063 191.582 89.7491 191.812 89.2732 192.167C88.9531 192.447 88.7019 192.796 88.5393 193.189C88.3767 193.582 88.3071 194.006 88.3359 194.43C88.3653 195.027 88.5249 195.61 88.8034 196.139C89.0819 196.667 89.4727 197.129 89.9482 197.49C91.5438 198.656 93.6174 198.714 95.2836 198.761Z" fill="#2F2E41"/>
<path d="M86.3405 182.601H80.9136V183.609H86.3405V182.601Z" fill="#2F2E41"/>
<path d="M103.47 182.601H98.0435V183.609H103.47V182.601Z" fill="#2F2E41"/>
<path d="M122.414 278.566L97.5261 228.936H97.8771C98.7453 228.935 99.5777 228.59 100.192 227.976C100.806 227.362 101.151 226.529 101.152 225.661V224.654C101.151 223.785 100.806 222.953 100.192 222.339C99.5777 221.725 98.7453 221.38 97.8771 221.379H86.793C85.9247 221.38 85.0923 221.725 84.4784 222.339C83.8645 222.953 83.5191 223.785 83.5181 224.654V225.661C83.5206 226.462 83.8173 227.234 84.3516 227.831C84.886 228.428 85.6208 228.807 86.4167 228.898L61.4572 278.593C60.2702 280.956 59.7075 283.584 59.8228 286.226C59.9382 288.868 60.7275 291.437 62.1159 293.688C63.5043 295.939 65.4455 297.797 67.7549 299.086C70.0643 300.375 72.665 301.052 75.3097 301.052H108.535C111.183 301.052 113.787 300.375 116.1 299.084C118.412 297.794 120.357 295.934 121.747 293.68C123.138 291.427 123.93 288.855 124.046 286.21C124.163 283.564 123.601 280.933 122.414 278.566Z" fill="#2F2E41"/>
<path d="M92.8587 240.168L148.998 213.909C149.846 213.514 150.815 213.471 151.694 213.79C152.573 214.109 153.29 214.763 153.687 215.61L156.837 222.345C157.233 223.193 157.276 224.162 156.957 225.041C156.638 225.92 155.984 226.637 155.137 227.034L98.9976 253.293C98.1503 253.688 97.1807 253.731 96.3017 253.412C95.4227 253.094 94.706 252.439 94.309 251.593L91.1585 244.857C90.9613 244.438 90.8491 243.984 90.8286 243.521C90.8081 243.058 90.8796 242.596 91.039 242.161C91.1635 241.816 91.3408 241.493 91.5645 241.202C91.9071 240.759 92.3509 240.405 92.8587 240.168Z" fill="#4285F4"/>
<path d="M90.9333 240.006L115.649 225.274C116.492 224.87 117.46 224.816 118.342 225.125C119.224 225.434 119.948 226.079 120.355 226.921L126.588 239.443C126.789 239.862 126.906 240.317 126.931 240.781C126.956 241.245 126.89 241.709 126.735 242.148C126.58 242.586 126.339 242.989 126.028 243.334C125.716 243.679 125.34 243.959 124.92 244.158L98.517 254.357C97.8256 254.69 96.4683 254.067 95.3776 253.567C95.0356 253.41 94.7402 253.275 94.5384 253.204C94.4495 253.173 94.3626 253.138 94.278 253.101C93.5106 252.762 92.8894 252.16 92.5265 251.404L89.3034 244.703C89.0198 244.112 88.9059 243.454 88.9745 242.802C89.0431 242.151 89.2913 241.531 89.6916 241.012C90.0213 240.584 90.4465 240.24 90.9333 240.006Z" fill="#2F2E41"/>
<path d="M70.3972 174.743C70.0365 174.742 69.6908 174.598 69.4359 174.343C69.1809 174.087 69.0372 173.742 69.0363 173.381C69.0347 173.274 69.0467 173.167 69.0721 173.063L76.1198 142.019C76.1732 141.785 76.287 141.57 76.4499 141.394C76.6128 141.218 76.8191 141.088 77.0481 141.016C77.2771 140.945 77.5207 140.935 77.7547 140.988C77.9887 141.04 78.2048 141.153 78.3813 141.316L101.747 162.952C101.922 163.116 102.052 163.322 102.123 163.551C102.194 163.78 102.204 164.023 102.151 164.257C102.099 164.491 101.986 164.707 101.824 164.883C101.661 165.06 101.456 165.191 101.227 165.263L70.8068 174.681C70.6741 174.722 70.536 174.743 70.3972 174.743Z" fill="#3F3D56"/>
<path d="M89.5082 152.049L74.8315 149.128L75.0625 148.109L88.0377 150.689L89.5082 152.049Z" fill="white"/>
<path d="M101.065 162.755L73.0034 157.171L73.2344 156.146L99.5936 161.389L101.065 162.755Z" fill="white"/>
<path d="M91.0265 168.092L88.9202 168.743L71.1812 165.213L71.4121 164.188L91.0265 168.092Z" fill="white"/>
<path d="M159.446 175.217C161.892 175.217 163.875 173.234 163.875 170.788C163.875 168.342 161.892 166.359 159.446 166.359C157 166.359 155.017 168.342 155.017 170.788C155.017 173.234 157 175.217 159.446 175.217Z" fill="#4285F4"/>
<path d="M102.501 61.3272C104.248 61.3272 105.665 59.9108 105.665 58.1636C105.665 56.4164 104.248 55 102.501 55C100.754 55 99.3374 56.4164 99.3374 58.1636C99.3374 59.9108 100.754 61.3272 102.501 61.3272Z" fill="#FF6584"/>
<path d="M33.5342 159.399C35.2814 159.399 36.6978 157.983 36.6978 156.236C36.6978 154.488 35.2814 153.072 33.5342 153.072C31.787 153.072 30.3706 154.488 30.3706 156.236C30.3706 157.983 31.787 159.399 33.5342 159.399Z" fill="#FF6584"/>
<path d="M144.261 148.643C146.008 148.643 147.424 147.227 147.424 145.479C147.424 143.732 146.008 142.316 144.261 142.316C142.514 142.316 141.097 143.732 141.097 145.479C141.097 147.227 142.514 148.643 144.261 148.643Z" fill="#4285F4"/>
<path d="M48.087 191.668C49.8342 191.668 51.2506 190.252 51.2506 188.505C51.2506 186.757 49.8342 185.341 48.087 185.341C46.3397 185.341 44.9233 186.757 44.9233 188.505C44.9233 190.252 46.3397 191.668 48.087 191.668Z" fill="#4285F4"/>
<path d="M148.057 200.526C149.804 200.526 151.221 199.11 151.221 197.363C151.221 195.615 149.804 194.199 148.057 194.199C146.31 194.199 144.894 195.615 144.894 197.363C144.894 199.11 146.31 200.526 148.057 200.526Z" fill="#E6E6E6"/>
<path d="M120.217 87.9017C121.965 87.9017 123.381 86.4853 123.381 84.7381C123.381 82.9909 121.965 81.5745 120.217 81.5745C118.47 81.5745 117.054 82.9909 117.054 84.7381C117.054 86.4853 118.47 87.9017 120.217 87.9017Z" fill="#CCCCCC"/>
<path d="M0.64332 122.687C3.95595 122.895 7.17197 123.886 10.0278 125.578C12.8835 127.269 15.2978 129.614 17.0726 132.418C17.57 133.214 18.2193 134.087 17.875 135.066C17.755 135.441 17.5113 135.765 17.1837 135.984C16.8561 136.202 16.4639 136.304 16.0713 136.271C15.5818 136.165 15.1406 135.902 14.8157 135.521C14.4908 135.14 14.3003 134.663 14.2735 134.163C14.2467 133.663 14.3851 133.168 14.6675 132.754C14.9498 132.341 15.3604 132.032 15.8358 131.875C18.1333 130.895 20.4513 132.409 22.3228 133.618C26.587 136.372 31.2774 138.863 36.4445 139.177C41.2253 139.467 46.3519 137.593 49.0111 133.447C49.4763 132.721 48.3213 132.051 47.8583 132.773C45.2211 136.885 39.8897 138.361 35.2542 137.726C32.4917 137.29 29.8243 136.384 27.3675 135.048C26.0934 134.387 24.8576 133.654 23.6469 132.884C22.4948 132.08 21.2736 131.38 19.9977 130.792C17.8699 129.917 15.0529 129.986 13.5666 131.998C12.1799 133.876 13.2516 137.001 15.5708 137.529C16.0796 137.63 16.6053 137.602 17.1008 137.449C17.5963 137.296 18.0462 137.023 18.41 136.653C18.7738 136.284 19.0403 135.83 19.1855 135.332C19.3307 134.834 19.3501 134.308 19.2419 133.801C19.0105 132.695 18.178 131.613 17.5336 130.71C15.5974 127.986 13.0748 125.731 10.1516 124.112C7.22849 122.492 3.97925 121.549 0.643242 121.352C-0.215534 121.309 -0.213217 122.644 0.64332 122.687Z" fill="#CCCCCC"/>
<path d="M187.747 163.099C185.527 161.67 183.678 159.736 182.35 157.454C181.023 155.172 180.255 152.608 180.109 149.972C180.072 149.227 179.96 148.369 180.578 147.822C180.807 147.608 181.102 147.478 181.414 147.453C181.726 147.428 182.038 147.51 182.298 147.685C182.597 147.948 182.801 148.302 182.879 148.692C182.957 149.083 182.905 149.488 182.729 149.846C182.554 150.203 182.266 150.493 181.91 150.671C181.553 150.849 181.148 150.904 180.757 150.829C178.782 150.619 177.759 148.669 176.928 147.104C175.034 143.538 172.742 139.99 169.275 137.769C166.068 135.715 161.781 135.029 158.327 136.878C157.723 137.201 158.265 138.114 158.866 137.792C162.292 135.959 166.567 137 169.54 139.238C171.289 140.612 172.791 142.275 173.979 144.155C174.607 145.108 175.182 146.096 175.724 147.101C176.212 148.106 176.789 149.065 177.447 149.968C178.586 151.4 180.569 152.444 182.381 151.623C182.785 151.414 183.134 151.113 183.401 150.745C183.668 150.377 183.845 149.952 183.918 149.503C183.991 149.054 183.959 148.594 183.822 148.161C183.686 147.727 183.45 147.331 183.133 147.005C182.819 146.738 182.443 146.553 182.04 146.467C181.636 146.381 181.218 146.397 180.822 146.512C180.426 146.628 180.065 146.84 179.771 147.13C179.477 147.419 179.26 147.777 179.139 148.171C178.952 149.098 178.948 150.052 179.127 150.98C179.416 153.622 180.294 156.166 181.696 158.424C183.098 160.682 184.989 162.596 187.23 164.026C187.81 164.389 188.326 163.461 187.747 163.099Z" fill="#CCCCCC"/>
<path d="M78.5789 75.5038C75.9442 75.3378 73.3863 74.5498 71.115 73.2044C68.8436 71.859 66.9235 69.9944 65.5119 67.7636C65.1163 67.1312 64.5999 66.4362 64.8737 65.6578C64.9691 65.3593 65.163 65.102 65.4235 64.928C65.6841 64.754 65.996 64.6735 66.3082 64.6997C66.6976 64.7835 67.0485 64.9931 67.3069 65.2961C67.5653 65.5991 67.7169 65.9787 67.7382 66.3763C67.7595 66.774 67.6493 67.1676 67.4248 67.4965C67.2002 67.8254 66.8737 68.0712 66.4956 68.1962C64.6683 68.9756 62.8246 67.771 61.3362 66.8096C57.9446 64.6191 54.2141 62.638 50.1044 62.3883C46.3021 62.1574 42.2246 63.6483 40.1096 66.9457C39.7396 67.5226 40.6583 68.0556 41.0265 67.4816C43.124 64.2114 47.3643 63.0369 51.0511 63.5423C53.2482 63.889 55.3698 64.6093 57.3238 65.6719C58.3372 66.1978 59.32 66.7808 60.283 67.3937C61.1993 68.033 62.1706 68.5898 63.1854 69.0575C64.8778 69.7527 67.1182 69.6984 68.3003 68.0978C68.5511 67.7185 68.7096 67.2858 68.7632 66.8343C68.8169 66.3827 68.7641 65.9249 68.6092 65.4975C68.4543 65.07 68.2016 64.6846 67.8711 64.3723C67.5407 64.06 67.1418 63.8293 66.7063 63.6986C66.3016 63.6189 65.8835 63.6408 65.4894 63.7624C65.0953 63.8839 64.7375 64.1014 64.4481 64.3953C64.1587 64.6892 63.9468 65.0503 63.8313 65.4462C63.7159 65.8421 63.7004 66.2606 63.7865 66.6639C64.0752 67.564 64.5368 68.3991 65.1452 69.1226C66.6852 71.2889 68.6915 73.0822 71.0164 74.3703C73.3414 75.6585 75.9256 76.4086 78.5789 76.5656C79.2619 76.5994 79.2601 75.5375 78.5789 75.5038Z" fill="#CCCCCC"/>
<path d="M80.9888 109.143H77.8252V119.538H80.9888V109.143Z" fill="#CCCCCC"/>
<path d="M29.837 101.889L32.0356 99.6903L24.8116 92.4662L22.6129 94.6649L29.837 101.889Z" fill="#B3B3B3"/>
<path d="M118.787 123.734L120.985 125.932L128.209 118.708L126.011 116.51L118.787 123.734Z" fill="#B3B3B3"/>
<path d="M28.9405 213.58L31.1392 215.779L38.3632 208.555L36.1646 206.356L28.9405 213.58Z" fill="#FF6584"/>
<circle cx="230" cy="20" r="20" fill="#EA4335"/>
<path d="M238 13.5107L236.489 12L230.5 17.9893L224.511 12L223 13.5107L228.989 19.5L223 25.4893L224.511 27L230.5 21.0107L236.489 27L238 25.4893L232.011 19.5L238 13.5107Z" fill="white"/>
</svg>
