<svg width="278" height="314" viewBox="0 0 278 314" fill="none" xmlns="http://www.w3.org/2000/svg">
<path d="M157.166 240.483C223.574 240.483 277.408 186.649 277.408 120.242C277.408 53.834 223.574 0 157.166 0C90.7583 0 36.9243 53.834 36.9243 120.242C36.9243 186.649 90.7583 240.483 157.166 240.483Z" fill="#F2F2F2"/>
<path d="M235.968 55.6655H15.7024C15.2301 55.6554 14.8553 55.2643 14.8654 54.792C14.8752 54.3339 15.2443 53.9649 15.7024 53.9551H235.968C236.441 53.9652 236.816 54.3563 236.805 54.8286C236.796 55.2867 236.427 55.6557 235.968 55.6655Z" fill="#CACACA"/>
<path d="M160.903 84.4875H100.013C95.439 84.4875 91.7314 88.1951 91.7314 92.7687V92.7687C91.7314 97.3422 95.439 101.05 100.013 101.05H160.903C165.476 101.05 169.184 97.3422 169.184 92.7687C169.184 88.1951 165.476 84.4875 160.903 84.4875Z" fill="white"/>
<path d="M60.6766 117.612H200.238C204.811 117.612 208.519 121.32 208.519 125.893C208.519 130.467 204.811 134.175 200.238 134.175H60.6766C56.1031 134.175 52.3955 130.467 52.3955 125.893C52.3955 121.32 56.1031 117.612 60.6766 117.612Z" fill="white"/>
<path d="M60.6766 150.737H200.238C204.811 150.737 208.519 154.444 208.519 159.018C208.519 163.591 204.811 167.299 200.238 167.299H60.6766C56.1031 167.299 52.3955 163.591 52.3955 159.018C52.3955 154.444 56.1031 150.737 60.6766 150.737Z" fill="white"/>
<path d="M43.3822 313.272L43.0537 313.24C31.9097 312.09 21.8356 306.096 15.5078 296.852C13.7745 294.276 12.3725 291.492 11.3348 288.565L11.2351 288.286L11.5303 288.262C15.0557 287.979 18.6773 287.38 20.2861 287.096L9.91187 283.581L9.84773 283.273C9.23267 280.383 10.4376 277.41 12.8909 275.764C15.3509 274.039 18.613 273.984 21.1299 275.625C22.2594 276.346 23.4408 277.061 24.5832 277.752C28.5092 280.127 32.5688 282.582 35.6124 285.942C40.2278 291.139 42.2508 298.141 41.118 304.999L43.3822 313.272Z" fill="#F2F2F2"/>
<path d="M81.0917 308.113L86.2044 308.112L88.6372 288.39L81.0903 288.39L81.0917 308.113Z" fill="#A0616A"/>
<path d="M80.9114 313.446L96.6348 313.446V313.247C96.6346 309.867 93.8947 307.127 90.5148 307.127L87.6424 304.948L82.2837 307.127L80.9111 307.128L80.9114 313.446Z" fill="#2F2E41"/>
<path d="M40.1157 293.951L44.2054 297.019L57.9872 282.703L51.9505 278.174L40.1157 293.951Z" fill="#A0616A"/>
<path d="M36.77 298.109L49.3476 307.545L49.4669 307.386C51.4951 304.682 50.9477 300.846 48.2442 298.818L47.2542 295.351L41.6599 293.878L40.562 293.055L36.77 298.109Z" fill="#2F2E41"/>
<path d="M57.1123 215.56C57.1123 215.56 57.3946 223.26 57.7506 229.434C57.809 230.447 55.4366 231.547 55.498 232.649C55.5388 233.38 55.9847 234.09 56.0261 234.852C56.0698 235.656 55.4542 236.368 55.498 237.2C55.5409 238.013 56.2432 238.945 56.2856 239.776C56.7416 248.728 58.3944 259.444 56.7393 262.44C55.9237 263.916 45.5269 284.369 45.5269 284.369C45.5269 284.369 51.3196 293.059 52.9747 290.162C55.1607 286.337 72.0079 268.439 72.0079 265.022C72.0079 261.608 75.9056 236.025 75.9056 236.025L78.6234 251.165L79.8695 254.164L79.4779 255.925L80.2833 258.302L80.3268 260.654L81.1108 265.022C81.1108 265.022 78.7524 299.05 80.0806 299.997C81.4129 300.949 87.8635 302.658 88.6248 300.949C89.382 299.24 94.3106 265.435 94.3106 265.435C94.3106 265.435 95.105 249.944 95.9657 235.545C96.0153 234.709 96.6029 233.7 96.6484 232.876C96.7022 231.92 96.3299 230.679 96.3795 229.752C96.4333 228.689 96.905 227.94 96.9505 226.922C97.3022 219.056 95.3279 209.478 94.699 208.535C92.7997 205.688 91.0909 203.412 91.0909 203.412C91.0909 203.412 65.5109 195.007 58.6754 203.548L57.1123 215.56Z" fill="#2F2E41"/>
<path d="M82.6251 136.386L72.4846 134.358L67.7524 140.78C58.9224 149.463 58.7894 157.125 60.3657 169.408V186.647L59.2248 198.203C59.2248 198.203 55.186 206.651 59.3516 208.618C63.5172 210.585 90.8789 210.417 93.4913 209.632C96.1036 208.847 93.8393 207.883 93.1533 204.224C91.8646 197.35 92.7266 200.666 92.8153 198.477C94.0867 167.085 91.1252 154.197 90.8244 150.81L85.6673 141.456L82.6251 136.386Z" fill="#3F3D56"/>
<path d="M136.072 161.697C135.015 163.7 132.535 164.466 130.532 163.409C130.319 163.297 130.116 163.165 129.925 163.017L108.026 176.922L108.089 169.351L129.363 157.006C130.878 155.307 133.483 155.158 135.182 156.674C136.604 157.941 136.972 160.018 136.072 161.697Z" fill="#A0616A"/>
<path d="M74.6185 145.154L72.1253 144.89C69.8216 144.651 67.5614 145.637 66.1703 147.489C65.6375 148.191 65.2548 148.996 65.046 149.852L65.0445 149.859C64.4191 152.437 65.4 155.138 67.5336 156.714L76.1448 163.063C82.1878 171.228 93.545 176.646 106.867 181.047L127.575 168.186L120.25 159.316L106.047 166.928L84.9345 150.584L84.9223 150.575L76.8868 145.398L74.6185 145.154Z" fill="#3F3D56"/>
<path d="M79.1988 131.407C85.7297 131.407 91.024 126.112 91.024 119.582C91.024 113.051 85.7297 107.756 79.1988 107.756C72.6679 107.756 67.3735 113.051 67.3735 119.582C67.3735 126.112 72.6679 131.407 79.1988 131.407Z" fill="#A0616A"/>
<path d="M79.4714 131.409C79.3761 131.412 79.2805 131.414 79.1851 131.417C79.1442 131.523 79.1002 131.628 79.0493 131.731L79.4714 131.409Z" fill="#2F2E41"/>
<path d="M82.7173 119.909C82.7358 120.026 82.7642 120.141 82.8021 120.252C82.7865 120.135 82.758 120.02 82.7173 119.909Z" fill="#2F2E41"/>
<path d="M91.1744 108.262C90.6876 109.773 90.2532 107.856 88.652 108.201C86.7259 108.616 84.4844 108.473 82.907 107.293C80.5567 105.568 77.5109 105.104 74.7536 106.05C72.0545 107.005 67.5327 107.678 66.8295 110.453C66.585 111.418 66.4879 112.465 65.8954 113.265C65.3773 113.964 64.5596 114.362 63.8758 114.9C61.567 116.717 63.3317 121.878 64.4244 124.605C65.5172 127.332 68.0239 129.319 70.7798 130.336C73.4463 131.321 76.3405 131.494 79.185 131.417C79.6798 130.134 79.4661 128.652 79.0578 127.322C78.6159 125.881 77.9615 124.492 77.7769 122.997C77.5922 121.502 77.9977 119.803 79.2512 118.968C80.4034 118.2 82.2784 118.668 82.7167 119.909C82.461 118.357 84.0331 116.856 85.6542 116.592C87.3946 116.308 89.135 116.936 90.8704 117.249C92.6059 117.562 91.9899 110.256 91.1744 108.262Z" fill="#2F2E41"/>
<path d="M157.31 139.143C158.413 125.823 148.509 114.132 135.189 113.029C121.869 111.927 110.178 121.831 109.076 135.151C107.973 148.47 117.877 160.162 131.197 161.264C144.517 162.366 156.208 152.462 157.31 139.143Z" fill="#4285F4"/>
<path d="M139.549 127.064L133.192 133.42L126.836 127.064C125.807 126.034 124.138 126.034 123.109 127.064C122.08 128.093 122.08 129.761 123.109 130.79L129.466 137.147L123.109 143.504C122.081 144.534 122.083 146.202 123.113 147.23C124.141 148.257 125.807 148.257 126.836 147.23L133.192 140.873L139.549 147.23C140.579 148.258 142.248 148.257 143.276 147.227C144.302 146.198 144.302 144.532 143.276 143.504L136.919 137.147L143.276 130.79C144.305 129.761 144.305 128.093 143.276 127.064C142.247 126.034 140.578 126.034 139.549 127.064Z" fill="white"/>
<path d="M123.656 116.807C124.37 118.956 123.206 121.276 121.057 121.989C120.828 122.065 120.592 122.121 120.354 122.156L115.226 147.585L109.807 142.298L115.626 118.4C115.449 116.131 117.146 114.147 119.416 113.97C121.315 113.822 123.068 114.995 123.656 116.807Z" fill="#A0616A"/>
<path d="M69.1743 149.699L67.2576 151.315C65.4903 152.812 64.6375 155.126 65.0106 157.412C65.1485 158.282 65.464 159.115 65.9375 159.859L65.9414 159.865C67.3685 162.1 69.997 163.263 72.6114 162.814L83.1542 160.996C93.2301 162.288 105.002 157.843 117.401 151.277L122.456 127.431L110.985 126.575L106.645 142.094L80.2349 146.014L80.2194 146.016L70.9206 148.231L69.1743 149.699Z" fill="#3F3D56"/>
<path d="M129.206 313.855L0.561839 314C0.250541 313.999 -0.0010053 313.746 3.02084e-06 313.435C0.00100188 313.125 0.251957 312.874 0.561839 312.873L129.206 312.727C129.517 312.728 129.769 312.981 129.768 313.293C129.767 313.603 129.516 313.854 129.206 313.855Z" fill="#CACACA"/>
<path d="M26.8773 44.832C29.0883 44.832 30.8806 42.9997 30.8806 40.7395C30.8806 38.4793 29.0883 36.647 26.8773 36.647C24.6664 36.647 22.874 38.4793 22.874 40.7395C22.874 42.9997 24.6664 44.832 26.8773 44.832Z" fill="#3F3D56"/>
<path d="M40.7069 44.832C42.9179 44.832 44.7102 42.9997 44.7102 40.7395C44.7102 38.4793 42.9179 36.647 40.7069 36.647C38.4959 36.647 36.7036 38.4793 36.7036 40.7395C36.7036 42.9997 38.4959 44.832 40.7069 44.832Z" fill="#3F3D56"/>
<path d="M54.5365 44.832C56.7475 44.832 58.5398 42.9997 58.5398 40.7395C58.5398 38.4793 56.7475 36.647 54.5365 36.647C52.3255 36.647 50.5332 38.4793 50.5332 40.7395C50.5332 42.9997 52.3255 44.832 54.5365 44.832Z" fill="#3F3D56"/>
<path d="M70.306 43.974C70.183 43.974 70.0603 43.9264 69.9676 43.8317L67.2664 41.0704C67.0863 40.8864 67.0863 40.5923 67.2664 40.4084L69.9676 37.6473C70.1509 37.4605 70.4509 37.4575 70.637 37.6399C70.824 37.8227 70.8272 38.1225 70.6444 38.3093L68.267 40.7394L70.6444 43.1697C70.8272 43.3564 70.824 43.6562 70.637 43.8391C70.545 43.9292 70.4255 43.974 70.306 43.974Z" fill="#3F3D56"/>
<path d="M74.8455 43.9742C74.726 43.9742 74.6065 43.9293 74.5145 43.8392C74.3275 43.6563 74.3243 43.3568 74.5071 43.1698L76.8842 40.7395L74.5071 38.3094C74.3243 38.1226 74.3275 37.8228 74.5145 37.64C74.701 37.4569 75.0011 37.4604 75.1839 37.6474L77.8849 40.4085C78.0649 40.5924 78.0649 40.8865 77.8849 41.0705L75.1839 43.8318C75.0912 43.9265 74.9685 43.9742 74.8455 43.9742Z" fill="#3F3D56"/>
<path d="M216.158 37.1208H211.135C210.562 37.1208 210.098 37.5848 210.098 38.1576V43.185C210.098 43.7578 210.562 44.2217 211.135 44.2217H216.158C216.73 44.2217 217.199 43.7578 217.199 43.185V38.1576C217.199 37.5848 216.73 37.1208 216.158 37.1208Z" fill="#3F3D56"/>
<path d="M203.848 37.1208H198.826C198.253 37.1208 197.789 37.5848 197.789 38.1576V43.185C197.789 43.7578 198.253 44.2217 198.826 44.2217H203.848C204.421 44.2217 204.89 43.7578 204.89 43.185V38.1576C204.89 37.5848 204.421 37.1208 203.848 37.1208Z" fill="#3F3D56"/>
<path d="M227.755 37.3577H222.733C222.16 37.3577 221.696 37.8216 221.696 38.3944V43.4218C221.696 43.9946 222.16 44.4585 222.733 44.4585H227.755C228.328 44.4585 228.797 43.9946 228.797 43.4218V38.3944C228.797 37.8216 228.328 37.3577 227.755 37.3577Z" fill="#3F3D56"/>
<path d="M152.05 39.27H111.902C111.201 39.27 110.638 39.8381 110.638 40.534C110.638 41.2299 111.201 41.7979 111.902 41.7979H152.05C152.746 41.7979 153.314 41.2299 153.314 40.534C153.314 39.8381 152.746 39.27 152.05 39.27Z" fill="#3F3D56"/>
</svg>
