<svg width="238" height="233" viewBox="0 0 238 233" fill="none" xmlns="http://www.w3.org/2000/svg">
<g id="Group 30">
<path id="Vector" d="M150.993 52.211H86.9035C85.443 52.2128 84.0429 52.7938 83.0102 53.8265C81.9775 54.8592 81.3965 56.2594 81.3947 57.7198V200.159L80.6602 200.384L64.938 205.198C64.1929 205.425 63.3881 205.348 62.7003 204.982C62.0124 204.616 61.4978 203.993 61.2693 203.248L14.503 50.4886C14.2754 49.7435 14.3529 48.9385 14.7186 48.2505C15.0843 47.5625 15.7082 47.0479 16.4531 46.8197L40.681 39.4012L110.918 17.9021L135.146 10.4836C135.515 10.3701 135.902 10.3304 136.286 10.3669C136.67 10.4033 137.043 10.5151 137.384 10.6959C137.725 10.8767 138.027 11.1229 138.272 11.4205C138.518 11.7181 138.702 12.0611 138.815 12.43L150.769 51.4765L150.993 52.211Z" fill="#F2F2F2"/>
<path id="Vector_2" d="M164.978 51.4765L150.571 4.41649C150.331 3.63238 149.939 2.90319 149.418 2.27059C148.896 1.63798 148.255 1.11436 147.531 0.729648C146.807 0.344934 146.014 0.106661 145.198 0.0284542C144.382 -0.0497522 143.558 0.0336405 142.774 0.273858L108.711 10.7002L38.4775 32.203L4.41463 42.633C2.83225 43.1189 1.5073 44.2128 0.73061 45.6745C-0.0460818 47.1363 -0.211062 48.8465 0.27189 50.4298L49.5134 211.262C49.9057 212.54 50.6973 213.658 51.7721 214.453C52.8468 215.249 54.1481 215.678 55.4851 215.68C56.1038 215.68 56.7191 215.587 57.3102 215.404L80.6603 208.257L81.3948 208.03V207.262L80.6603 207.486L57.0936 214.703C55.6968 215.128 54.1882 214.983 52.8987 214.298C51.6092 213.613 50.644 212.444 50.2149 211.049L0.977169 50.2131C0.764561 49.5216 0.690462 48.7948 0.759111 48.0746C0.827761 47.3543 1.0378 46.6547 1.37723 46.0157C1.71665 45.3768 2.17879 44.8111 2.73716 44.351C3.29553 43.8909 3.93918 43.5454 4.63124 43.3344L38.6941 32.9044L108.928 11.4053L142.991 0.975321C143.516 0.815125 144.061 0.733443 144.61 0.732932C145.788 0.735577 146.934 1.1153 147.881 1.81649C148.827 2.51767 149.524 3.50348 149.869 4.6295L164.211 51.4765L164.438 52.211H165.202L164.978 51.4765Z" fill="#3F3D56"/>
<path id="Vector_3" d="M45.0529 46.9398C44.3451 46.9393 43.656 46.712 43.0869 46.2912C42.5177 45.8704 42.0984 45.2782 41.8904 44.6016L37.16 29.1506C37.0329 28.7356 36.9888 28.2995 37.0302 27.8675C37.0716 27.4354 37.1978 27.0157 37.4014 26.6323C37.605 26.249 37.8822 25.9095 38.2171 25.6333C38.5519 25.3571 38.9379 25.1496 39.353 25.0226L103.967 5.24086C104.806 4.98508 105.711 5.07231 106.485 5.48342C107.259 5.89452 107.838 6.5959 108.096 7.43363L112.826 22.8849C113.082 23.7231 112.994 24.6285 112.583 25.4024C112.172 26.1763 111.471 26.7555 110.633 27.0131L46.0186 46.7948C45.7057 46.8908 45.3802 46.9397 45.0529 46.9398Z" fill="#4285F4"/>
<path id="Vector_4" d="M69.8326 16.5068C73.8892 16.5068 77.1777 13.2183 77.1777 9.16174C77.1777 5.10516 73.8892 1.81665 69.8326 1.81665C65.7761 1.81665 62.4875 5.10516 62.4875 9.16174C62.4875 13.2183 65.7761 16.5068 69.8326 16.5068Z" fill="#4285F4"/>
<path id="Vector_5" d="M69.8325 13.8129C72.4013 13.8129 74.4837 11.7305 74.4837 9.16176C74.4837 6.59301 72.4013 4.51062 69.8325 4.51062C67.2638 4.51062 65.1814 6.59301 65.1814 9.16176C65.1814 11.7305 67.2638 13.8129 69.8325 13.8129Z" fill="white"/>
<path id="Vector_6" d="M221.319 213.803H97.1868C96.3592 213.802 95.5658 213.473 94.9805 212.888C94.3953 212.302 94.0661 211.509 94.0652 210.681V61.9432C94.0661 61.1156 94.3953 60.3221 94.9805 59.7369C95.5657 59.1516 96.3592 58.8225 97.1868 58.8215H221.319C222.146 58.8225 222.94 59.1517 223.525 59.7369C224.11 60.3221 224.44 61.1156 224.441 61.9432V210.681C224.44 211.509 224.11 212.302 223.525 212.888C222.94 213.473 222.146 213.802 221.319 213.803Z" fill="#E6E6E6"/>
<path id="Vector_7" d="M164.211 51.4764H86.9035C85.2484 51.4788 83.6617 52.1373 82.4914 53.3077C81.321 54.478 80.6625 56.0647 80.6602 57.7198V207.486L81.3947 207.262V57.7198C81.3964 56.2593 81.9774 54.8591 83.0101 53.8264C84.0428 52.7937 85.443 52.2127 86.9035 52.2109H164.438L164.211 51.4764ZM231.602 51.4764H86.9035C85.2484 51.4788 83.6617 52.1373 82.4914 53.3077C81.321 54.478 80.6625 56.0647 80.6602 57.7198V225.922C80.6625 227.577 81.321 229.164 82.4914 230.334C83.6617 231.505 85.2484 232.163 86.9035 232.166H231.602C233.257 232.163 234.844 231.505 236.014 230.334C237.184 229.164 237.843 227.577 237.845 225.922V57.7198C237.843 56.0647 237.184 54.478 236.014 53.3077C234.844 52.1373 233.257 51.4788 231.602 51.4764ZM237.111 225.922C237.109 227.383 236.528 228.783 235.495 229.816C234.462 230.848 233.062 231.429 231.602 231.431H86.9035C85.443 231.429 84.0428 230.848 83.0101 229.816C81.9774 228.783 81.3964 227.383 81.3947 225.922V57.7198C81.3964 56.2593 81.9774 54.8591 83.0101 53.8264C84.0428 52.7937 85.443 52.2127 86.9035 52.2109H231.602C233.062 52.2127 234.462 52.7937 235.495 53.8264C236.528 54.8591 237.109 56.2593 237.111 57.7198V225.922Z" fill="#3F3D56"/>
<path id="Vector_8" d="M193.04 67.6356H125.465C124.589 67.6346 123.749 67.2861 123.129 66.6664C122.51 66.0468 122.161 65.2066 122.16 64.3303V48.1711C122.161 47.2948 122.51 46.4547 123.129 45.835C123.749 45.2154 124.589 44.8668 125.465 44.8658H193.04C193.917 44.8668 194.757 45.2154 195.376 45.835C195.996 46.4547 196.345 47.2948 196.346 48.1711V64.3303C196.345 65.2066 195.996 66.0468 195.376 66.6664C194.757 67.2861 193.917 67.6346 193.04 67.6356Z" fill="#4285F4"/>
<path id="Vector_9" d="M159.253 45.9676C163.309 45.9676 166.598 42.6791 166.598 38.6226C166.598 34.566 163.309 31.2775 159.253 31.2775C155.196 31.2775 151.907 34.566 151.907 38.6226C151.907 42.6791 155.196 45.9676 159.253 45.9676Z" fill="#4285F4"/>
<path id="Vector_10" d="M159.253 43.0964C161.724 43.0964 163.727 41.0934 163.727 38.6225C163.727 36.1517 161.724 34.1487 159.253 34.1487C156.782 34.1487 154.779 36.1517 154.779 38.6225C154.779 41.0934 156.782 43.0964 159.253 43.0964Z" fill="white"/>
</g>
</svg>
